<svg width="209" height="100" viewBox="0 0 209 100" fill="none" xmlns="http://www.w3.org/2000/svg">
<rect width="209" height="100" fill="#F9F9F9"/>
<rect width="209" height="100" fill="#F9F9F9"/>
<path d="M20.456 29.68H31.208V33.84H20.456V29.68ZM20.84 42H15.656V19.6H32.584V23.76H20.84V42ZM40.8615 28.624H51.6455V32.656H40.8615V28.624ZM41.2455 37.84H53.4375V42H36.0935V19.6H53.0215V23.76H41.2455V37.84ZM38.1415 17.776L42.3655 13.168H46.7815L51.0055 17.776H47.3575L42.9415 13.936H46.2055L41.7895 17.776H38.1415ZM62.2023 42V23.824H55.0343V19.6H74.5543V23.824H67.3863V42H62.2023ZM94.246 42.256C92.4113 42.256 90.7793 41.872 89.35 41.104C87.942 40.336 86.822 39.2907 85.99 37.968C85.1793 36.624 84.774 35.0987 84.774 33.392C84.774 31.664 85.1793 30.1387 85.99 28.816C86.822 27.472 87.942 26.4267 89.35 25.68C90.7793 24.912 92.4113 24.528 94.246 24.528C96.0593 24.528 97.6807 24.912 99.11 25.68C100.539 26.4267 101.659 27.4613 102.47 28.784C103.281 30.1067 103.686 31.6427 103.686 33.392C103.686 35.0987 103.281 36.624 102.47 37.968C101.659 39.2907 100.539 40.336 99.11 41.104C97.6807 41.872 96.0593 42.256 94.246 42.256ZM94.246 38.16C95.078 38.16 95.8247 37.968 96.486 37.584C97.1473 37.2 97.67 36.656 98.054 35.952C98.438 35.2267 98.63 34.3733 98.63 33.392C98.63 32.3893 98.438 31.536 98.054 30.832C97.67 30.128 97.1473 29.584 96.486 29.2C95.8247 28.816 95.078 28.624 94.246 28.624C93.414 28.624 92.6673 28.816 92.006 29.2C91.3447 29.584 90.8113 30.128 90.406 30.832C90.022 31.536 89.83 32.3893 89.83 33.392C89.83 34.3733 90.022 35.2267 90.406 35.952C90.8113 36.656 91.3447 37.2 92.006 37.584C92.6673 37.968 93.414 38.16 94.246 38.16ZM117.487 24.528C118.852 24.528 120.068 24.8053 121.135 25.36C122.223 25.8933 123.076 26.7253 123.695 27.856C124.313 28.9653 124.623 30.3947 124.623 32.144V42H119.631V32.912C119.631 31.5253 119.321 30.5013 118.703 29.84C118.105 29.1787 117.252 28.848 116.143 28.848C115.353 28.848 114.639 29.0187 113.999 29.36C113.38 29.68 112.889 30.1813 112.527 30.864C112.185 31.5467 112.015 32.4213 112.015 33.488V42H107.023V24.784H111.791V29.552L110.895 28.112C111.513 26.96 112.399 26.0747 113.551 25.456C114.703 24.8373 116.015 24.528 117.487 24.528ZM15.656 81V58.6H19.944L29.48 74.408H27.208L36.584 58.6H40.84L40.904 81H36.04L36.008 66.056H36.904L29.416 78.632H27.08L19.432 66.056H20.52V81H15.656ZM43.2745 81L53.2585 58.6H58.3785L68.3945 81H62.9545L54.7625 61.224H56.8105L48.5865 81H43.2745ZM48.2665 76.2L49.6425 72.264H61.1625L62.5705 76.2H48.2665ZM70.7185 81V58.6H75.9025V76.776H87.1345V81H70.7185ZM90.031 81V58.6H95.215V81H90.031ZM100.531 81V58.6H104.819L118.035 74.728H115.955V58.6H121.075V81H116.819L103.571 64.872H105.651V81H100.531Z" fill="#1F4D1B"/>
</svg>
