<svg width="80" height="80" viewBox="0 0 80 80" fill="none" xmlns="http://www.w3.org/2000/svg">
<path d="M40.632 5C21.8 5 6.53597 20.272 6.53597 39.096C6.53597 45.536 8.32797 51.568 11.424 56.712L5.27197 75L24.152 68.952C29.04 71.648 34.648 73.2 40.632 73.2C59.464 73.2 74.728 57.928 74.728 39.104C74.728 20.28 59.464 5 40.632 5ZM57.336 50.912C56.648 52.864 53.904 54.488 51.712 54.952C50.216 55.272 48.256 55.528 41.664 52.8C33.232 49.312 27.808 40.744 27.392 40.192C26.984 39.632 23.984 35.656 23.984 31.544C23.984 27.432 26.08 25.424 26.92 24.568C27.608 23.856 28.76 23.544 29.848 23.544C30.208 23.544 30.52 23.56 30.808 23.576C31.648 23.608 32.072 23.664 32.632 24.992C33.32 26.656 35.008 30.768 35.208 31.192C35.416 31.616 35.616 32.184 35.328 32.744C35.056 33.32 34.824 33.568 34.4 34.064C33.976 34.552 33.576 34.92 33.152 35.44C32.76 35.896 32.328 36.384 32.816 37.232C33.304 38.056 34.992 40.808 37.472 43.008C40.672 45.856 43.272 46.768 44.2 47.16C44.888 47.448 45.72 47.376 46.224 46.84C46.864 46.144 47.656 45 48.464 43.872C49.04 43.064 49.76 42.96 50.52 43.248C51.296 43.512 55.392 45.544 56.24 45.96C57.08 46.384 57.64 46.584 57.84 46.936C58.032 47.288 58.032 48.96 57.336 50.912Z" fill="#1F4D1B"/>
</svg>
